<svg id="Layer_1" data-name="Layer 1" xmlns="http://www.w3.org/2000/svg" viewBox="0 0 490.77 485.88"><path d="M82.44,304.64C35.79,285.66,17,249.83,24.38,199.7c8.5-57.79,41.58-99,86.15-132.73,19.14-14.49,41.28-20.87,65.34-14.72,29.71,7.59,48.21,30.27,51.44,66.55,4.41,49.68-6.51,96.32-35.15,137.68-21.4,30.9-51.53,47.07-89.42,48.14-2.84.08-5.68.48-9.45.82C97.92,352.72,110.51,396,145,429.85c26.68,26.17,58.53,33.55,94.17,21.86,18.2-6,35.8-13.36,48.24-29.13,19.95-25.28,12.65-55.74-16.78-69-20.67-9.28-42.18-7.61-65-3.64-6.92-23-13.79-45.87-21.57-71.77,10.11,5.68,18,9.81,25.54,14.42,15.64,9.56,30.61,20.34,46.78,28.88,35.54,18.76,57.89,11.94,81-20.5,12.23-17.2,25.85-34,41.44-48.11,39.9-36.16,94.74-15.85,114.88,20.57,15.58,28.16,21.43,58.74,19.51,90.06-1.5,24.61-5.19,49.76-12.58,73.2C489.4,472.52,466,499,427,506.26c-41.22,7.72-82.45-21.88-90.79-63.11-3.88-19.18-.79-37.08,6.72-54.56,1.59-3.71,4.65-6.79,8.69-12.5,2.15,6.3,3.82,9.77,4.5,13.42,8.07,43.14,44.17,59.42,81.64,36.73S496.41,351,484,312c-9.68-30.54-35.56-38.61-59.43-16.82-14.78,13.5-27.67,29.43-39.64,45.58C370.71,360,352.15,365,329.88,362.6c-8-.87-16-1.15-25-1.77.69,2.85.69,4.72,1.54,6.06,33.62,53.33,2.42,131-57.87,150.26-41.13,13.11-80.87,3.08-114.12-25.82-29.88-26-43.91-60.64-51.08-98.5A250.78,250.78,0,0,1,82.44,304.64ZM201.71,136C202,94.65,178.93,73.43,150,80c-39.82,9-77.48,64.07-71.55,104.56,4.8,32.76,34.39,50.13,64.37,35.75C181,202,197.11,168.14,201.71,136Z" transform="translate(-22.83 -36.94)"/><path d="M219.17,225.66c27.59,18,56.58,30.84,88,37.46,8.4,1.76,19.38,6.57,25.3-3.14s-1.1-19.25-7.73-25.42c-15.17-14.14-31.68-26.85-47.94-39.79-4.24-3.38-9.5-5.47-14.31-8.13-25.06-13.82-25.07-13.85-14.15-45,14.68,7.51,29.58,14.07,43.4,22.41,22,13.31,39.16,31.83,52,54.15,19.41,33.68,6.18,71.84-30.5,86.16-26.05,10.17-52.09,6-76.88-4.45-12.32-5.2-23.54-13.31-34.54-21.12-2.51-1.78-3.93-8.57-2.61-11.67C205.22,253.05,212.37,239.51,219.17,225.66Z" transform="translate(-22.83 -36.94)"/><path d="M432.47,172.05c-33.23,7.27-65.14,9.22-94.1-10.1-29.35-19.58-35.71-49.32-32.16-82.22.67-6.15,3-12.11,4.61-18.16l3.15.13c1.58,6.16,2.93,12.39,4.78,18.47,8.4,27.59,23.28,49.86,53.86,54.36,12.06,1.77,25.36-1.3,37.49-4.48,13-3.43,17-2,18.75,11.92C430,151.39,431.12,160.82,432.47,172.05Z" transform="translate(-22.83 -36.94)"/><path d="M359.62,102.22l-17.7-44c12.22-7.18,23.83-14.76,36.22-20.75,3.11-1.51,11,.66,12.73,3.53a250.93,250.93,0,0,1,17.51,35.16c.93,2.26-2.45,8.54-5.22,9.72C389.13,91.8,374.65,96.69,359.62,102.22Z" transform="translate(-22.83 -36.94)"/></svg>